<svg width="18" height="14" viewBox="0 0 18 14" fill="none" xmlns="http://www.w3.org/2000/svg">
<path d="M11 2C11 2.53043 10.7893 3.03914 10.4142 3.41421C10.0391 3.78929 9.53043 4 9 4C8.46957 4 7.96086 3.78929 7.58579 3.41421C7.21071 3.03914 7 2.53043 7 2C7 1.46957 7.21071 0.960859 7.58579 0.585786C7.96086 0.210714 8.46957 0 9 0C9.53043 0 10.0391 0.210714 10.4142 0.585786C10.7893 0.960859 11 1.46957 11 2V2Z" fill="black"/>
<path d="M0 7C0 6.73478 0.105357 6.48043 0.292893 6.29289C0.48043 6.10536 0.734784 6 1 6H17C17.2652 6 17.5196 6.10536 17.7071 6.29289C17.8946 6.48043 18 6.73478 18 7C18 7.26522 17.8946 7.51957 17.7071 7.70711C17.5196 7.89464 17.2652 8 17 8H1C0.734784 8 0.48043 7.89464 0.292893 7.70711C0.105357 7.51957 0 7.26522 0 7Z" fill="black"/>
<path d="M9 14C9.53043 14 10.0391 13.7893 10.4142 13.4142C10.7893 13.0391 11 12.5304 11 12C11 11.4696 10.7893 10.9609 10.4142 10.5858C10.0391 10.2107 9.53043 10 9 10C8.46957 10 7.96086 10.2107 7.58579 10.5858C7.21071 10.9609 7 11.4696 7 12C7 12.5304 7.21071 13.0391 7.58579 13.4142C7.96086 13.7893 8.46957 14 9 14Z" fill="black"/>
</svg>
